<svg xmlns="http://www.w3.org/2000/svg" xmlns:xlink="http://www.w3.org/1999/xlink" viewBox="0,0,256,256" width="50px" height="50px" fill-rule="nonzero"><g fill="#fffafa" fill-rule="nonzero" stroke="none" stroke-width="1" stroke-linecap="butt" stroke-linejoin="miter" stroke-miterlimit="10" stroke-dasharray="" stroke-dashoffset="0" font-family="none" font-weight="none" font-size="none" text-anchor="none" style="mix-blend-mode: normal"><g transform="scale(5.12,5.12)"><path d="M16,4c-1.65,0 -3,1.35 -3,3v4h2v-4c0,-0.55 0.45,-1 1,-1h14v8h-3.49023c0.29,0.61 0.46047,1.28 0.48047,2h3.00977v8h-3v2h3v8h-3.00977c-0.02,0.72 -0.19047,1.39 -0.48047,2h3.49023v8h-14c-0.55,0 -1,-0.45 -1,-1v-4h-2v4c0,1.65 1.35,3 3,3h30c1.65,0 3,-1.35 3,-3v-36c0,-1.65 -1.35,-3 -3,-3zM32,6h14c0.55,0 1,0.45 1,1v7h-15zM4.19922,13c-1.75547,0 -3.19922,1.44375 -3.19922,3.19922v17.60156c0,1.75547 1.44375,3.19922 3.19922,3.19922h17.60156c1.75547,0 3.19922,-1.44375 3.19922,-3.19922v-17.60156c0,-1.75547 -1.44375,-3.19922 -3.19922,-3.19922zM4.19922,15h17.60156c0.67453,0 1.19922,0.52468 1.19922,1.19922v17.60156c0,0.67453 -0.52469,1.19922 -1.19922,1.19922h-17.60156c-0.67453,0 -1.19922,-0.52468 -1.19922,-1.19922v-17.60156c0,-0.67453 0.52469,-1.19922 1.19922,-1.19922zM32,16h15v8h-15zM7.96875,19l3.49414,5.97852l-3.83203,6.02148h2.86328l2.52148,-4.7168l2.5332,4.7168h2.82031l-3.76953,-6l3.68555,-6h-2.67578l-2.45508,4.50586l-2.32422,-4.50586zM32,26h15v8h-15zM32,36h15v7c0,0.55 -0.45,1 -1,1h-14z"></path></g></g></svg>