<svg xmlns="http://www.w3.org/2000/svg" xmlns:xlink="http://www.w3.org/1999/xlink" viewBox="0,0,256,256" width="50px" height="50px" fill-rule="nonzero"><g fill="#0078d4" fill-rule="nonzero" stroke="none" stroke-width="1" stroke-linecap="butt" stroke-linejoin="miter" stroke-miterlimit="10" stroke-dasharray="" stroke-dashoffset="0" font-family="none" font-weight="none" font-size="none" text-anchor="none" style="mix-blend-mode: normal"><g transform="scale(5.12,5.12)"><path d="M24.99805,1c-8.03612,0 -13.38244,5.83523 -13.9375,12.78906c-0.14486,0.05615 -0.30089,0.10471 -0.44141,0.16406c-3.49473,1.47618 -5.62109,4.21114 -5.62109,8.04883c0,6.24145 2.34588,12.89444 5.97852,18.06445c3.63264,5.17001 8.60966,8.93555 14.02149,8.93555c5.41231,0 10.39093,-3.76541 14.02344,-8.93555c3.63251,-5.17014 5.97656,-11.82351 5.97656,-18.06445c0,-3.83769 -2.12441,-6.57265 -5.61914,-8.04883c-0.14052,-0.05936 -0.29654,-0.10791 -0.44141,-0.16406c-0.55529,-6.95472 -5.90523,-12.78906 -13.93945,-12.78906zM24.99805,8.00195c3.03533,0 5.2432,2.01512 6.29883,4.23047c-1.92468,-0.1622 -4.02714,-0.23047 -6.29883,-0.23047c-2.27247,0 -4.37395,0.06814 -6.29883,0.23047c1.05492,-2.21539 3.26172,-4.23047 6.29883,-4.23047zM24.99414,16.01172c3.855,0 6.98633,3.12742 6.98633,6.98242c0,3.856 -3.13133,6.98438 -6.98633,6.98438c-3.856,0 -6.98633,-3.12837 -6.98633,-6.98437c0,-3.855 3.13033,-6.98242 6.98633,-6.98242zM24.99805,32.01367c5.05864,0 9.47406,2.89464 12.14453,7.2207c-3.36992,4.65376 -7.78109,7.76758 -12.14453,7.76758c-4.36403,0 -8.77424,-3.11588 -12.14453,-7.77148c2.66977,-4.32529 7.08243,-7.2168 12.14453,-7.2168z"></path></g></g></svg>