<svg version="1.1" id="Layer_1" xmlns="http://www.w3.org/2000/svg" xmlns:xlink="http://www.w3.org/1999/xlink" x="0px" y="0px" width="100%" viewBox="0 0 2400 2236" enable-background="new 0 0 2400 2236" xml:space="preserve">

<path fill="#0062FF" opacity="1.000000" stroke="none" d="
M2402.000000,1251.200073 
	C2400.470703,1252.156738 2398.617432,1251.805542 2397.459717,1252.544312 
	C2366.589844,1272.241211 2335.805176,1292.070923 2304.978760,1311.836060 
	C2249.216553,1347.589722 2193.423096,1383.294800 2137.668213,1419.060181 
	C2087.510986,1451.235107 2037.397217,1483.478149 1987.247437,1515.664917 
	C1928.695801,1553.244019 1870.071411,1590.710571 1811.645996,1628.484497 
	C1805.667480,1632.349976 1801.181763,1632.293945 1795.346558,1628.518188 
	C1750.946045,1599.788208 1706.386719,1571.303833 1661.881104,1542.736450 
	C1601.970947,1504.281128 1542.065063,1465.819336 1482.156616,1427.361450 
	C1425.847656,1391.214355 1369.547729,1355.053589 1313.224976,1318.928223 
	C1276.814453,1295.574463 1240.370361,1272.273193 1202.601562,1248.090576 
	C1235.882446,1225.830566 1269.318970,1205.025513 1302.401367,1183.692017 
	C1335.692383,1162.223877 1369.174683,1141.052246 1402.466675,1119.585815 
	C1435.745972,1098.127808 1468.804321,1076.326660 1502.123779,1054.932007 
	C1535.153198,1033.723633 1568.436157,1012.910583 1601.518799,991.784424 
	C1634.867798,970.488220 1668.099854,949.008911 1701.396362,927.630371 
	C1734.622192,906.297241 1767.864380,884.989746 1802.183105,862.975891 
	C1789.242798,854.733032 1777.516357,847.217102 1765.744995,839.772156 
	C1660.533447,773.229614 1555.329712,706.674500 1450.091553,640.174072 
	C1370.744751,590.034546 1291.300293,540.049622 1212.074219,489.720490 
	C1205.723022,485.685883 1201.235229,485.701233 1194.972290,489.681549 
	C1118.562988,538.240967 1041.989990,586.543091 965.456299,634.906921 
	C853.187866,705.852661 740.914917,776.791321 628.651733,847.745300 
	C621.087952,852.525879 613.589417,857.409668 604.863403,863.014343 
	C804.787720,991.290771 1003.748352,1118.948853 1204.397461,1247.690308 
	C1194.758057,1254.052246 1186.914551,1259.351440 1178.951538,1264.464722 
	C1127.692505,1297.378906 1076.417480,1330.267944 1025.128540,1363.135620 
	C960.665710,1404.445679 896.167603,1445.700806 831.717102,1487.030273 
	C790.241638,1513.626831 748.833923,1540.328979 707.378540,1566.956787 
	C675.171448,1587.644165 642.877747,1608.197510 610.775757,1629.046387 
	C605.514465,1632.463501 601.300476,1632.331177 596.167725,1629.019043 
	C551.173401,1599.984985 506.082092,1571.101440 461.016663,1542.177734 
	C401.064880,1503.699829 341.112640,1465.222534 281.156738,1426.750977 
	C225.681503,1391.154541 170.221664,1355.533936 114.715889,1319.985352 
	C77.479012,1296.137085 40.173683,1272.395874 2.449486,1249.303467 
	C2.000000,1248.500000 2.000000,1247.000000 2.001006,1245.768921 
	C5.834955,1244.325317 9.954483,1243.062134 13.455625,1240.829224 
	C42.030724,1222.604736 70.475578,1204.176270 98.988831,1185.854614 
	C136.779663,1161.571533 174.592224,1137.322266 212.403214,1113.070557 
	C280.418854,1069.445679 348.438141,1025.826416 416.459961,982.211121 
	C463.199554,952.241760 509.955780,922.298340 556.683228,892.310059 
	C571.481201,882.813049 586.210205,873.208557 601.465149,863.333130 
	C599.656067,861.765198 598.564514,860.537659 597.227905,859.702332 
	C570.204346,842.812073 543.053711,826.123169 516.129456,809.076477 
	C474.264954,782.570435 432.609558,755.734070 390.759216,729.205505 
	C321.074280,685.032593 251.317322,640.973389 181.567734,596.902588 
	C124.755157,561.006042 67.923752,525.139221 11.031210,489.369751 
	C8.367526,487.695038 5.025894,487.098602 2.000000,486.000000 
	C2.000000,485.111115 2.000000,484.222198 2.721014,482.656647 
	C10.809889,477.603363 18.304604,473.425476 25.524139,468.816559 
	C60.836231,446.273499 96.078773,423.621490 131.338608,400.996613 
	C166.879593,378.191345 202.406982,355.364868 237.949203,332.561554 
	C317.760437,281.356079 397.578705,230.161621 477.390930,178.957748 
	C516.296082,153.997971 555.295654,129.182617 594.001221,103.916901 
	C600.896484,99.415871 606.038025,99.440140 612.903381,103.897865 
	C655.056580,131.268417 697.490295,158.206665 739.789856,185.352280 
	C799.461548,223.646439 859.075623,262.030365 918.754883,300.312683 
	C992.718445,347.757965 1066.726196,395.134491 1140.708862,442.549927 
	C1161.430298,455.830231 1182.131104,469.142822 1203.284058,482.724823 
	C1210.772461,478.065430 1218.091553,473.625702 1225.297241,469.009216 
	C1269.823975,440.482330 1314.327759,411.919281 1358.834717,383.361359 
	C1429.677490,337.904816 1500.520264,292.448242 1571.356201,246.980911 
	C1607.453735,223.811066 1643.528442,200.605698 1679.627441,177.438095 
	C1717.727295,152.986328 1755.943848,128.713531 1793.861572,103.982590 
	C1800.701660,99.521294 1805.852905,99.328850 1812.772095,103.819221 
	C1854.374390,130.818527 1896.266113,157.371475 1938.019165,184.139145 
	C2018.160034,235.517014 2098.283203,286.922485 2178.394287,338.346588 
	C2250.385986,384.558594 2322.343262,430.823730 2394.365967,476.986816 
	C2396.625977,478.435333 2399.442871,479.015167 2402.000000,480.000000 
	C2402.000000,481.500000 2402.000000,483.000000 2401.315918,485.360107 
	C2202.336670,611.580078 2004.041138,736.939941 1805.142578,862.681030 
	C1807.338623,864.283936 1808.608521,865.314880 1809.976196,866.194153 
	C1866.536621,902.556335 1923.104004,938.907776 1979.674561,975.254211 
	C2020.006836,1001.167664 2060.331787,1027.092407 2100.683105,1052.976074 
	C2157.279541,1089.279907 2213.895752,1125.552612 2270.506592,1161.833862 
	C2313.106201,1189.135498 2355.705078,1216.438721 2398.352783,1243.664917 
	C2399.267090,1244.248657 2400.770996,1243.908936 2402.000000,1244.000000 
	C2402.000000,1246.133423 2402.000000,1248.266724 2402.000000,1251.200073 
z" data-index="1" style="opacity: 1;"></path>

<path fill="#000000" opacity="1.000000" stroke="none" d="
M2.000000,486.937317 
	C5.025894,487.098602 8.367526,487.695038 11.031210,489.369751 
	C67.923752,525.139221 124.755157,561.006042 181.567734,596.902588 
	C251.317322,640.973389 321.074280,685.032593 390.759216,729.205505 
	C432.609558,755.734070 474.264954,782.570435 516.129456,809.076477 
	C543.053711,826.123169 570.204346,842.812073 597.227905,859.702332 
	C598.564514,860.537659 599.656067,861.765198 601.465149,863.333130 
	C586.210205,873.208557 571.481201,882.813049 556.683228,892.310059 
	C509.955780,922.298340 463.199554,952.241760 416.459961,982.211121 
	C348.438141,1025.826416 280.418854,1069.445679 212.403214,1113.070557 
	C174.592224,1137.322266 136.779663,1161.571533 98.988831,1185.854614 
	C70.475578,1204.176270 42.030724,1222.604736 13.455625,1240.829224 
	C9.954483,1243.062134 5.834955,1244.325317 2.001006,1245.018921 
	C2.000000,991.958191 2.000000,739.916443 2.000000,486.937317 
z" data-index="3" style="opacity: 1; visibility: hidden; fill: rgb(121, 40, 202);"></path>

<path fill="#0062FF" opacity="1.000000" stroke="none" d="
M776.740479,1869.292236 
	C730.262512,1839.391235 684.390198,1809.888550 638.502808,1780.409546 
	C627.099976,1773.084106 615.648193,1765.834717 604.161255,1758.513550 
	C610.102905,1751.576172 760.260193,1656.447998 802.249390,1630.661377 
	C869.662781,1589.261108 936.173706,1546.390747 1003.045166,1504.108643 
	C1069.620483,1462.013672 1136.169922,1419.877930 1202.513550,1377.897461 
	C1214.677246,1383.116699 1796.506592,1751.785522 1802.711548,1758.570068 
	C1603.128418,1886.623047 1403.750610,2014.544189 1204.057007,2142.667725 
	C1199.273071,2140.073486 1194.482544,2137.865479 1190.093628,2135.034668 
	C1147.907593,2107.824951 1105.823853,2080.456299 1063.640747,2053.242188 
	C1028.159058,2030.351318 992.590698,2007.594971 957.048279,1984.798584 
	C922.065430,1962.361084 887.070923,1939.942017 852.074402,1917.526001 
	C827.169250,1901.574097 802.252258,1885.640869 776.740479,1869.292236 
z" data-index="5" style="opacity: 1;"></path>
</svg>